<svg xmlns="http://www.w3.org/2000/svg" viewBox="0 0 28.426 29.679"><defs><style>.a{fill:#eeff91;}</style></defs><path class="a" d="M35.615,21.059a14.714,14.714,0,0,1-5.474,6.282A14.807,14.807,0,0,1,16.377,28.5a14.6,14.6,0,0,1-7.9-7.9A14.588,14.588,0,0,1,7.3,14.823,14.809,14.809,0,0,1,21.573,0a1.11,1.11,0,0,1,1.178.762,1.108,1.108,0,0,1-.3,1.386A10.213,10.213,0,0,0,19.91,5.654a10.576,10.576,0,0,0-.878,4.227,10.249,10.249,0,0,0,1.409,5.289A10.523,10.523,0,0,0,24.275,19a10.477,10.477,0,0,0,9.7.416,1.156,1.156,0,0,1,1.386.254,1.187,1.187,0,0,1,.346.647A1.344,1.344,0,0,1,35.615,21.059Z" transform="translate(-7.3 0.006)"/></svg>