<svg xmlns="http://www.w3.org/2000/svg" xmlns:xlink="http://www.w3.org/1999/xlink" viewBox="0 0 34 32"><defs><style>.a,.c{fill:#eeff91;}.a{fill-rule:evenodd;}.b,.c{stroke:none;}.d{filter:url(#a);}</style><filter id="a" x="0" y="0" width="34" height="32" filterUnits="userSpaceOnUse"><feOffset dx="1" dy="1" input="SourceAlpha"/><feGaussianBlur stdDeviation="1" result="b"/><feFlood flood-opacity="0.161"/><feComposite operator="in" in2="b"/><feComposite in="SourceGraphic"/></filter></defs><g class="d" transform="matrix(1, 0, 0, 1, 0, 0)"><g class="a" transform="translate(-8 -1)"><path class="b" d="M 31.95216941833496 28 L 31.94986915588379 27.99998092651367 L 31.94399070739746 27.99989128112793 L 31.9381103515625 27.9998607635498 C 31.90723991394043 27.99971961975098 31.87704086303711 27.99006080627441 31.85306930541992 27.97267150878906 L 31.84833908081055 27.9692497253418 L 31.84358024597168 27.96588134765625 L 25.25041007995605 23.30025100708008 C 24.88175964355469 23.04057121276855 24.44998931884766 22.90397071838379 24 22.90397071838379 C 23.55001068115234 22.90397071838379 23.11824035644531 23.04057121276855 22.7513599395752 23.29899978637695 L 16.15641975402832 27.96588134765625 L 16.15166091918945 27.9692497253418 L 16.14693069458008 27.97267150878906 C 16.12295913696289 27.99006080627441 16.09275054931641 27.99971961975098 16.06188011169434 27.9998607635498 L 16.05599975585938 27.99989128112793 L 16.05011940002441 27.99998092651367 C 16.00717926025391 28 15.96947956085205 27.98224067687988 15.94696998596191 27.95248985290527 C 15.92879676818848 27.928466796875 15.92302322387695 27.89915084838867 15.93097114562988 27.87166976928711 L 18.45898056030273 20.29135131835938 C 18.74918937683105 19.41413116455078 18.43461990356445 18.46978378295898 17.67704772949219 17.93828773498535 L 11.03946018218994 13.2405309677124 C 11.00638961791992 13.21710014343262 10.9924201965332 13.17920017242432 11.0042896270752 13.14426040649414 C 11.01784992218018 13.10435009002686 11.06107997894287 13.07647037506104 11.10941982269287 13.07647037506104 L 11.12047958374023 13.07672023773193 L 11.13453006744385 13.07675075531006 L 19.31498718261719 13.07675075531006 L 19.32282066345215 13.0767707824707 C 20.23759078979492 13.07670021057129 21.04990005493164 12.49935054779053 21.34413909912109 11.64011096954346 L 21.34543037414551 11.63636016845703 L 21.3466796875 11.63260078430176 L 23.86399459838867 4.086959362030029 C 23.88329887390137 4.035617828369141 23.93876647949219 4.000000476837158 24 4.000000476837158 C 24.06123352050781 4.000000476837158 24.11670112609863 4.035617828369141 24.13600540161133 4.086959362030029 L 26.6533203125 11.63260078430176 L 26.65456962585449 11.63635063171387 L 26.65584945678711 11.64009094238281 C 26.95009994506836 12.49941062927246 27.76244926452637 13.0767707824707 28.67725944519043 13.0767707824707 L 28.68503952026367 13.07675075531006 L 36.86547088623047 13.07675075531006 L 36.87652969360352 13.07675075531006 L 36.88758087158203 13.07651042938232 C 36.88761520385742 13.07651042938232 36.88765716552734 13.07651042938232 36.88769149780273 13.07651042938232 C 36.93898391723633 13.07651042938232 36.98215866088867 13.10437774658203 36.99570846557617 13.14427089691162 C 37.0075798034668 13.17920017242432 36.99361038208008 13.21710014343262 36.96012878417969 13.24082088470459 L 30.32295227050781 17.93828773498535 C 29.56538009643555 18.46978378295898 29.25081062316895 19.41412925720215 29.54026031494141 20.28906059265137 L 32.06902694702148 27.87166976928711 C 32.07697677612305 27.89915084838867 32.07120132446289 27.928466796875 32.05300903320312 27.95251083374023 C 32.03052139282227 27.98224067687988 31.99282073974609 28 31.95216941833496 28 Z"/><path class="c" d="M 17.73471260070801 25.62394905090332 L 22.17552947998047 22.48143005371094 C 22.71187019348145 22.10365104675293 23.34276008605957 21.90397071838379 24 21.90397071838379 C 24.65726089477539 21.90397071838379 25.28816986083984 22.10366058349609 25.82806015014648 22.48396110534668 L 30.26528549194336 25.62394523620605 L 28.59086990356445 20.60315132141113 C 28.16189956665039 19.30647277832031 28.62644386291504 17.90787887573242 29.74699211120605 17.12080574035645 L 34.04801940917969 14.07675075531006 L 28.6851806640625 14.07675075531006 L 28.67725944519043 14.0767707824707 C 27.33502960205078 14.0767707824707 26.14249038696289 13.2277307510376 25.70977973937988 11.96404075622559 L 25.70721054077148 11.9565601348877 L 25.70471000671387 11.94906044006348 L 24 6.839198589324951 L 22.29528999328613 11.94906044006348 L 22.29277992248535 11.95658016204834 L 22.29021072387695 11.96408081054688 C 21.85750961303711 13.22764015197754 20.6650390625 14.07666015625 19.32274055480957 14.0767707824707 L 19.31488990783691 14.07675075531006 L 13.951979637146 14.07675075531006 L 18.25300788879395 17.12080574035645 C 19.37355613708496 17.90787887573242 19.83809852600098 19.30648040771484 19.4076099395752 20.60770988464355 L 17.73471260070801 25.62394905090332 M 31.9521656036377 29.00000381469727 C 31.94597625732422 29.00000381469727 31.93973350524902 28.99995231628418 31.93353080749512 28.99985122680664 C 31.6932201385498 28.99875068664551 31.45945930480957 28.92253112792969 31.26593971252441 28.78217124938965 L 24.67276954650879 24.11654090881348 C 24.47158432006836 23.97482490539551 24.23579216003418 23.90396881103516 24 23.90396881103516 C 23.76420783996582 23.90396881103516 23.52841567993164 23.97482490539551 23.32723045349121 24.11654090881348 L 16.73406028747559 28.78217124938965 C 16.54054069519043 28.92253112792969 16.3067798614502 28.99875068664551 16.06645965576172 28.99985122680664 C 16.06023597717285 28.99995231628418 16.05403709411621 29.00000381469727 16.04782485961914 29.00000381469727 C 15.69435882568359 29.00000381469727 15.36112022399902 28.8355827331543 15.14947032928467 28.55581092834473 C 14.93410968780518 28.27112007141113 14.87092018127441 27.9017505645752 14.97968006134033 27.56325149536133 L 17.51033973693848 19.9749813079834 C 17.6594295501709 19.52432060241699 17.49379920959473 19.03050994873047 17.10149955749512 18.75605964660645 L 10.46175956726074 14.05678081512451 C 10.06700038909912 13.77709102630615 9.903109550476074 13.27679061889648 10.05745029449463 12.82255077362061 C 10.20913314819336 12.37613868713379 10.63339614868164 12.07647323608398 11.10942459106445 12.07647323608398 C 11.11776161193848 12.07647323608398 11.1261625289917 12.07656574249268 11.13453006744385 12.07675075531006 L 19.31646919250488 12.07675075531006 C 19.31859016418457 12.07676219940186 19.32062149047852 12.07676792144775 19.32274055480957 12.07676792144775 C 19.80944633483887 12.07673072814941 20.24235725402832 11.77086162567139 20.39808082580566 11.31613063812256 L 22.91839027404785 3.761510610580444 C 23.07662963867188 3.306020498275757 23.51128959655762 3.000000476837158 24 3.000000476837158 C 24.48871040344238 3.000000476837158 24.92337036132812 3.306020498275757 25.08160972595215 3.761510610580444 L 27.60191917419434 11.31613063812256 C 27.75764274597168 11.77088928222656 28.19051742553711 12.07676792144775 28.67725944519043 12.07676792144775 C 28.67934799194336 12.07676792144775 28.68144035339355 12.07676219940186 28.68353080749512 12.07675075531006 L 36.86547088623047 12.07675075531006 C 36.87386703491211 12.07656478881836 36.88220977783203 12.07647323608398 36.89057540893555 12.07647323608398 C 37.36656951904297 12.07647323608398 37.79087448120117 12.37616634368896 37.94255065917969 12.82255077362061 C 38.09688949584961 13.27679061889648 37.93299865722656 13.77709102630615 37.53823852539062 14.05678081512451 L 30.89850044250488 18.75605964660645 C 30.50620079040527 19.03050994873047 30.3405704498291 19.52432060241699 30.48966026306152 19.9749813079834 L 33.02032089233398 27.56325149536133 C 33.12908172607422 27.9017505645752 33.06589126586914 28.27112007141113 32.85052871704102 28.55581092834473 C 32.63886642456055 28.83559989929199 32.3056640625 29.00000381469727 31.9521656036377 29.00000381469727 Z"/></g></g></svg>