<svg xmlns="http://www.w3.org/2000/svg" xmlns:xlink="http://www.w3.org/1999/xlink" viewBox="0 0 34 32"><defs><style>.a{fill:none;fill-rule:evenodd;}.b,.c{stroke:none;}.c{fill:#71ccd7;}.d{filter:url(#a);}</style><filter id="a" x="0" y="0" width="34" height="32" filterUnits="userSpaceOnUse"><feOffset dx="1" dy="1" input="SourceAlpha"/><feGaussianBlur stdDeviation="1" result="b"/><feFlood flood-opacity="0.161"/><feComposite operator="in" in2="b"/><feComposite in="SourceGraphic"/></filter></defs><g class="d" transform="matrix(1, 0, 0, 1, 0, 0)"><g class="a" transform="translate(-8 -1)"><path class="b" d="M28.684,12.077a1.134,1.134,0,0,1-1.082-.761l-2.52-7.555a1.149,1.149,0,0,0-2.163,0L20.4,11.316a1.134,1.134,0,0,1-1.082.761H11.135a1.109,1.109,0,0,0-1.077.746,1.084,1.084,0,0,0,.4,1.234l6.64,4.7a1.074,1.074,0,0,1,.409,1.219L14.98,27.563a1.09,1.09,0,0,0,.17.993,1.126,1.126,0,0,0,.917.444,1.146,1.146,0,0,0,.668-.218l6.593-4.666a1.171,1.171,0,0,1,1.346,0l6.593,4.666a1.146,1.146,0,0,0,.668.218,1.126,1.126,0,0,0,.917-.444,1.09,1.09,0,0,0,.17-.993L30.49,19.975a1.074,1.074,0,0,1,.409-1.219l6.64-4.7a1.084,1.084,0,0,0,.4-1.234,1.109,1.109,0,0,0-1.077-.746Z"/><path class="c" d="M 17.73471260070801 25.62394905090332 L 22.17552947998047 22.48143005371094 C 22.71187019348145 22.10365104675293 23.34276008605957 21.90397071838379 24 21.90397071838379 C 24.65726089477539 21.90397071838379 25.28816986083984 22.10366058349609 25.82806015014648 22.48396110534668 L 30.26528549194336 25.62394523620605 L 28.59086990356445 20.60315132141113 C 28.16189956665039 19.30647277832031 28.62644386291504 17.90787887573242 29.74699211120605 17.12080574035645 L 34.04801940917969 14.07675075531006 L 28.6851806640625 14.07675075531006 L 28.67725944519043 14.0767707824707 C 27.33502960205078 14.0767707824707 26.14249038696289 13.2277307510376 25.70977973937988 11.96404075622559 L 25.70721054077148 11.9565601348877 L 25.70471000671387 11.94906044006348 L 24 6.839198589324951 L 22.29528999328613 11.94906044006348 L 22.29277992248535 11.95658016204834 L 22.29021072387695 11.96408081054688 C 21.85750961303711 13.22764015197754 20.6650390625 14.07666015625 19.32274055480957 14.0767707824707 L 19.31488990783691 14.07675075531006 L 13.951979637146 14.07675075531006 L 18.25300788879395 17.12080574035645 C 19.37355613708496 17.90787887573242 19.83809852600098 19.30648040771484 19.4076099395752 20.60770988464355 L 17.73471260070801 25.62394905090332 M 31.9521656036377 29.00000381469727 C 31.94597625732422 29.00000381469727 31.93973350524902 28.99995231628418 31.93353080749512 28.99985122680664 C 31.6932201385498 28.99875068664551 31.45945930480957 28.92253112792969 31.26593971252441 28.78217124938965 L 24.67276954650879 24.11654090881348 C 24.47158432006836 23.97482490539551 24.23579216003418 23.90396881103516 24 23.90396881103516 C 23.76420783996582 23.90396881103516 23.52841567993164 23.97482490539551 23.32723045349121 24.11654090881348 L 16.73406028747559 28.78217124938965 C 16.54054069519043 28.92253112792969 16.3067798614502 28.99875068664551 16.06645965576172 28.99985122680664 C 16.06023597717285 28.99995231628418 16.05403709411621 29.00000381469727 16.04782485961914 29.00000381469727 C 15.69435882568359 29.00000381469727 15.36112022399902 28.8355827331543 15.14947032928467 28.55581092834473 C 14.93410968780518 28.27112007141113 14.87092018127441 27.9017505645752 14.97968006134033 27.56325149536133 L 17.51033973693848 19.9749813079834 C 17.6594295501709 19.52432060241699 17.49379920959473 19.03050994873047 17.10149955749512 18.75605964660645 L 10.46175956726074 14.05678081512451 C 10.06700038909912 13.77709102630615 9.903109550476074 13.27679061889648 10.05745029449463 12.82255077362061 C 10.20913314819336 12.37613868713379 10.63339614868164 12.07647323608398 11.10942459106445 12.07647323608398 C 11.11776161193848 12.07647323608398 11.1261625289917 12.07656574249268 11.13453006744385 12.07675075531006 L 19.31646919250488 12.07675075531006 C 19.31859016418457 12.07676219940186 19.32062149047852 12.07676792144775 19.32274055480957 12.07676792144775 C 19.80944633483887 12.07673072814941 20.24235725402832 11.77086162567139 20.39808082580566 11.31613063812256 L 22.91839027404785 3.761510610580444 C 23.07662963867188 3.306020498275757 23.51128959655762 3.000000476837158 24 3.000000476837158 C 24.48871040344238 3.000000476837158 24.92337036132812 3.306020498275757 25.08160972595215 3.761510610580444 L 27.60191917419434 11.31613063812256 C 27.75764274597168 11.77088928222656 28.19051742553711 12.07676792144775 28.67725944519043 12.07676792144775 C 28.67934799194336 12.07676792144775 28.68144035339355 12.07676219940186 28.68353080749512 12.07675075531006 L 36.86547088623047 12.07675075531006 C 36.87386703491211 12.07656478881836 36.88220977783203 12.07647323608398 36.89057540893555 12.07647323608398 C 37.36656951904297 12.07647323608398 37.79087448120117 12.37616634368896 37.94255065917969 12.82255077362061 C 38.09688949584961 13.27679061889648 37.93299865722656 13.77709102630615 37.53823852539062 14.05678081512451 L 30.89850044250488 18.75605964660645 C 30.50620079040527 19.03050994873047 30.3405704498291 19.52432060241699 30.48966026306152 19.9749813079834 L 33.02032089233398 27.56325149536133 C 33.12908172607422 27.9017505645752 33.06589126586914 28.27112007141113 32.85052871704102 28.55581092834473 C 32.63886642456055 28.83559989929199 32.3056640625 29.00000381469727 31.9521656036377 29.00000381469727 Z"/></g></g></svg>